<svg version="1.1" id="Capa_1" xmlns="http://www.w3.org/2000/svg" xmlns:xlink="http://www.w3.org/1999/xlink" x="0px" y="0px"
	 viewBox="0 0 490.982 490.982" xml:space="preserve">
<path fill="#fff" d="M445.474,148.461h-8.201C426.92,65.167,342.339,0,239.876,0C137.283,0,52.614,65.327,42.437,148.77
	c-23.365,1.606-41.946,20.943-41.946,44.707v118.849c0,24.825,20.191,45.016,45.001,45.016h51.553
	c24.81,0,45.001-20.191,44.986-45.016V193.477c0-24.825-20.191-45.016-45.001-45.016H73.62
	C84.183,82.148,154.636,30.686,239.876,30.686c85.269,0,155.71,51.462,166.272,117.775h-12.196
	c-24.825,0-45.017,20.206-45.017,45.016v118.849c0,24.825,20.207,45.016,45.017,45.016h10.224
	c-2.465,20.74-9.822,37.481-22.483,49.497c-27.142,25.747-69.612,23.736-70.871,23.767h-16.371
	c-0.254-24.61-20.303-44.556-44.97-44.556h-35.703c-24.81,0-45.002,20.207-45.002,45.017v14.913
	c0,24.81,20.192,45.001,45.002,45.001h35.703c19.427,0,35.862-12.434,42.158-29.701l18.294-0.019
	c0.322,0.031,1.857,0.108,4.311,0.108c13.762,0,57.015-2.516,88.346-32.083c19.019-17.901,29.922-42.092,32.667-71.945h10.217
	c24.81,0,45.002-20.191,45.017-45.016V193.477C490.491,168.652,470.284,148.461,445.474,148.461z"/>
<g>
</g>
</svg>
